<?xml version="1.0" encoding="UTF-8"?>
<svg id="_图层_2" data-name="图层 2" xmlns="http://www.w3.org/2000/svg" xmlns:xlink="http://www.w3.org/1999/xlink" viewBox="0 0 677.94 667.96">
  <defs>
    <style>
      .cls-1 {
        fill: url(#_未命名的渐变_5);
        fill-rule: evenodd;
      }

      .cls-2 {
        fill: url(#_未命名的渐变_5-2);
      }

      .cls-3 {
        fill: url(#_未命名的渐变_5-3);
      }
    </style>
    <linearGradient id="_未命名的渐变_5" data-name="未命名的渐变 5" x1="0" y1="265.87" x2="677.94" y2="265.87" gradientUnits="userSpaceOnUse">
      <stop offset="0" stop-color="#00d8ff"/>
      <stop offset="1" stop-color="#0b7ffb"/>
    </linearGradient>
    <linearGradient id="_未命名的渐变_5-2" data-name="未命名的渐变 5" x1="0" y1="455.6" x2="677.94" y2="455.6" xlink:href="#_未命名的渐变_5"/>
    <linearGradient id="_未命名的渐变_5-3" data-name="未命名的渐变 5" x1="0" y1="523.38" x2="677.94" y2="523.38" xlink:href="#_未命名的渐变_5"/>
  </defs>
  <g id="_图层_1-2" data-name="图层 1">
    <g>
      <path class="cls-1" d="m253.22,502.98L29.89,327.59c-39.82-31.27-39.85-91.57-.07-122.88L253.2,28.85c48.42-38.12,116.54-38.5,165.4-.94l228.83,175.95c40.69,31.29,40.69,92.63,0,123.92l-228.93,176.03c-48.8,37.53-116.85,37.18-165.28-.84Zm-123.04-345.49c-8.36,9.05-12.41,17.62-12.18,25.69h0c.24,8.09,3.94,15.16,11.1,21.24,9.2,7.8,20.7,11.22,34.53,10.24,13.82-.98,29.7-8.29,47.64-21.93l89.36-67.96-19.23-16.33-86.72,65.96c-9.66,7.34-17.7,11.97-24.14,13.87-6.43,1.9-11.86.97-16.28-2.78-3.36-2.86-4.7-6.22-4.02-10.08.68-3.86,3.32-8.39,7.9-13.58l-27.96-4.36Zm99.47,119.88c8.45,2.33,17.54,2.53,27.28.61h0c9.74-1.93,19.31-6.47,28.72-13.63,8.66-6.59,14.16-13.16,16.53-19.73,2.37-6.56,2.82-12.64,1.36-18.22-1.46-5.58-4.06-12.07-7.79-19.48-2.55-5.19-4.4-9.43-5.56-12.75-1.17-3.31-1.43-6.56-.79-9.75.63-3.19,2.71-6.12,6.23-8.79,4.64-3.53,9.72-5.22,15.24-5.08,5.52.14,10.44,2.06,14.78,5.73,4.78,4.05,7.09,8.7,6.95,13.93-.14,5.23-2.37,10.76-6.67,16.6l28.25,3.7c7.64-8.66,11.17-17.67,10.58-27.05-.58-9.37-5.16-17.71-13.74-24.99-6.28-5.33-13.67-9.14-22.18-11.42s-17.53-2.47-27.05-.56c-9.52,1.91-18.74,6.25-27.64,13.02-8.4,6.39-13.76,12.75-16.07,19.06-2.32,6.31-2.76,12.14-1.36,17.47,1.41,5.33,3.94,11.66,7.58,19,2.68,5.5,4.62,9.98,5.81,13.41,1.19,3.43,1.38,6.92.56,10.47-.82,3.54-3.24,6.84-7.25,9.89-5.02,3.82-10.19,5.58-15.52,5.29-5.34-.29-10.3-2.39-14.9-6.29-5.66-4.8-8.58-10.41-8.76-16.82-.18-6.41,2.18-13.19,7.08-20.33l-28.25-3.7c-8.53,10.33-12.15,20.83-10.85,31.52,1.29,10.69,6.45,19.86,15.47,27.52,6.19,5.25,13.51,9.05,21.96,11.38Zm206.65-44.64l-98.45,138.06-20.43-17.34,22.93-31.1-37.8-32.1-39.64,16.91-19.23-16.33,175.77-72.41,16.84,14.3h0Zm-43.5,18.78l-35.35,47.8-25.6-21.73,60.94-26.07Zm32.61,187.44l-22.76-19.63,25.87-57.68-.79-.68-14.06-11.94-49.66,37.77-19.23-16.33,137.71-104.73,33.56,28.49c7.6,6.46,12.46,13.51,14.57,21.16,2.11,7.65,1.36,15.34-2.26,23.07-3.61,7.73-9.75,14.89-18.4,21.47-8.78,6.68-18.08,11.19-27.92,13.55s-19.37,2.42-28.64.22l-27.99,65.27Zm53.16-139.27l-41.76,31.76,12.07,10.25c5.66,4.8,12.09,7.49,19.3,8.06,7.21.57,14.32-1.82,21.34-7.16,7.15-5.44,10.56-11.02,10.24-16.75-.32-5.73-3.37-11.04-9.11-15.91l-12.07-10.25h0Z"/>
      <path class="cls-2" d="m674.44,311.02c-.87,22.11-11.01,43.91-30.45,58.86l-228.93,176.03c-48.8,37.53-116.85,37.18-165.28-.84L26.44,369.68c-13.1-10.29-21.89-23.72-26.38-38.22-.94,23.93,8.99,48.22,29.82,64.57l223.34,175.39c48.42,38.03,116.46,38.37,165.28.84l228.93-176.03c27.24-20.94,36.24-55.35,27.01-85.2h0Z"/>
      <path class="cls-3" d="m674.44,378.8c-.87,22.11-11.01,43.91-30.45,58.86l-228.93,176.03c-48.8,37.53-116.85,37.18-165.28-.84L26.44,437.46c-13.1-10.29-21.89-23.72-26.38-38.22-.94,23.93,8.99,48.22,29.82,64.57l223.34,175.39c48.42,38.03,116.46,38.37,165.28.84l228.93-176.03c27.24-20.94,36.24-55.35,27.01-85.2h0Z"/>
    </g>
  </g>
</svg>